<svg width="150" height="150" viewBox="0 0 150 150" fill="none" xmlns="http://www.w3.org/2000/svg">
<rect width="150" height="150" rx="5" fill="white"/>
<path d="M66.3867 43.0352L60.3157 39C58.1945 40.3451 52.9402 43.5911 48.8928 45.8147C43.8336 48.5942 44.8211 52.8854 44.7113 59.4563C44.6236 64.713 45.9914 66.9944 46.6863 67.4779C51.5504 70.4159 62.2028 76.86 65.8991 79.1324C69.5954 81.4048 72.4781 80.8188 73.4575 80.2418C74.7172 79.4372 78.0876 77.3623 81.4912 75.4995C84.8949 73.6368 86.2172 71.9357 86.4529 71.3181C86.4854 67.0919 86.531 58.0519 86.4529 55.7015C86.3749 53.3511 82.8769 51.4469 81.1377 50.7886L75.4446 54.3605C75.9647 54.5678 77.3439 55.1724 78.6995 55.9331C80.0552 56.6939 80.6379 57.9406 80.7598 58.4689V66.6611C80.7598 69.1603 79.5407 69.4528 74.9691 72.4518C71.3119 74.851 69.3979 74.5568 68.8981 74.1098C63.9933 71.2002 53.835 65.1714 52.4404 64.3327C51.0457 63.4939 50.6158 62.5853 50.5752 62.2358V55.092C50.5752 52.4197 52.2412 50.9146 53.0743 50.496L66.3867 43.0352Z" fill="#E1918E"/>
<path d="M60.6452 58.7067V62.9004L54.7936 60.3525V56.427C54.7936 54.3497 55.8908 53.3021 56.4393 53.0379C62.9127 49.3035 76.4031 41.4956 78.578 40.14C80.7529 38.7844 82.4669 39.3069 83.0521 39.7377C86.3842 41.6273 93.4948 45.682 95.2795 46.784C97.0643 47.8861 97.4454 49.1775 97.4129 49.6855L97.1935 66.1188L91.2565 69.4225C91.2728 65.7612 91.2955 57.8314 91.2565 55.403C91.2175 52.9746 90.8258 51.8636 90.6348 51.6116C89.2491 50.6729 85.9608 48.4395 83.8932 47.0156C81.8257 45.5918 79.6996 46.4224 78.895 47.0156C75.2336 49.1856 67.1966 53.9011 64.339 55.403C61.4815 56.9049 60.6858 58.2313 60.6452 58.7067Z" fill="#CD9F97"/>
<path d="M38.7886 90.1497C38.6413 88.9061 38.044 87.9407 36.9968 87.2534C35.9496 86.5662 34.6651 86.2225 33.1433 86.2225C32.0306 86.2225 31.057 86.4025 30.2225 86.7625C29.3961 87.1225 28.7498 87.6175 28.2834 88.2475C27.8253 88.8774 27.5962 89.5933 27.5962 90.3951C27.5962 91.066 27.7557 91.6428 28.0748 92.1255C28.4021 92.6001 28.8193 92.9969 29.3266 93.3159C29.8338 93.6268 30.3656 93.8846 30.922 94.0891C31.4783 94.2855 31.9897 94.445 32.456 94.5677L35.0087 95.255C35.6632 95.4268 36.3914 95.6641 37.1932 95.9668C38.0031 96.2695 38.7763 96.6827 39.5126 97.2063C40.2572 97.7217 40.8708 98.3844 41.3535 99.1944C41.8362 100.004 42.0776 100.998 42.0776 102.177C42.0776 103.535 41.7217 104.762 41.0099 105.858C40.3062 106.955 39.2754 107.826 37.9172 108.472C36.5673 109.119 34.9269 109.442 32.996 109.442C31.1961 109.442 29.6375 109.151 28.3203 108.57C27.0112 107.99 25.9803 107.18 25.2276 106.141C24.4831 105.101 24.0618 103.895 23.9636 102.52H27.1053C27.1871 103.469 27.5062 104.255 28.0625 104.876C28.6271 105.49 29.3389 105.948 30.1979 106.251C31.0652 106.546 31.9979 106.693 32.996 106.693C34.1578 106.693 35.201 106.505 36.1255 106.128C37.05 105.744 37.7822 105.212 38.3222 104.533C38.8622 103.846 39.1322 103.044 39.1322 102.127C39.1322 101.293 38.899 100.614 38.4327 100.09C37.9663 99.5667 37.3527 99.1412 36.5918 98.814C35.8309 98.4867 35.0087 98.2003 34.1251 97.9549L31.0324 97.0713C29.0689 96.5068 27.5144 95.7009 26.369 94.6536C25.2235 93.6064 24.6508 92.236 24.6508 90.5424C24.6508 89.1352 25.0313 87.9079 25.7922 86.8607C26.5612 85.8053 27.5921 84.9871 28.8848 84.4062C30.1857 83.8171 31.6379 83.5226 33.2415 83.5226C34.8614 83.5226 36.3014 83.8131 37.5613 84.3939C38.8213 84.9667 39.8194 85.7521 40.5558 86.7502C41.3003 87.7484 41.693 88.8815 41.7339 90.1497H38.7886ZM50.8536 109.442C49.6591 109.442 48.5751 109.217 47.6015 108.767C46.6279 108.309 45.8547 107.65 45.282 106.791C44.7093 105.924 44.4229 104.876 44.4229 103.649C44.4229 102.569 44.6356 101.694 45.0611 101.023C45.4865 100.344 46.0551 99.8121 46.7669 99.4276C47.4787 99.043 48.2642 98.7567 49.1232 98.5685C49.9905 98.3721 50.8618 98.2167 51.7372 98.1022C52.8827 97.9549 53.8113 97.8444 54.5231 97.7708C55.243 97.689 55.7667 97.554 56.0939 97.3658C56.4294 97.1776 56.5971 96.8504 56.5971 96.384V96.2858C56.5971 95.075 56.2657 94.1341 55.603 93.4632C54.9485 92.7923 53.9544 92.4569 52.6209 92.4569C51.2382 92.4569 50.1541 92.7596 49.3687 93.365C48.5833 93.9705 48.031 94.6168 47.7119 95.3041L44.9629 94.3223C45.4538 93.1769 46.1083 92.2851 46.9265 91.6469C47.7528 91.0006 48.6528 90.5506 49.6264 90.2969C50.6082 90.0351 51.5736 89.9042 52.5227 89.9042C53.1281 89.9042 53.8235 89.9779 54.609 90.1251C55.4026 90.2642 56.1676 90.5547 56.9039 90.9965C57.6484 91.4383 58.2661 92.1051 58.757 92.9969C59.2479 93.8887 59.4934 95.0832 59.4934 96.5804V109H56.5971V106.447H56.4498C56.2535 106.856 55.9262 107.294 55.468 107.76C55.0099 108.227 54.4003 108.624 53.6395 108.951C52.8786 109.278 51.95 109.442 50.8536 109.442ZM51.2954 106.84C52.4409 106.84 53.4063 106.615 54.1917 106.165C54.9853 105.715 55.5826 105.134 55.9835 104.422C56.3926 103.711 56.5971 102.962 56.5971 102.177V99.5257C56.4744 99.673 56.2044 99.808 55.7871 99.9307C55.378 100.045 54.9035 100.148 54.3635 100.238C53.8317 100.319 53.3122 100.393 52.8049 100.458C52.3059 100.516 51.9009 100.565 51.59 100.606C50.8373 100.704 50.1337 100.863 49.4791 101.084C48.8328 101.297 48.3092 101.62 47.9083 102.054C47.5156 102.479 47.3192 103.06 47.3192 103.797C47.3192 104.803 47.6915 105.564 48.436 106.079C49.1887 106.586 50.1418 106.84 51.2954 106.84ZM66.2936 97.6604V109H63.3973V90.1497H66.1954V93.095H66.4409C66.8827 92.1378 67.5536 91.3687 68.4535 90.7878C69.3535 90.1988 70.5153 89.9042 71.9389 89.9042C73.2152 89.9042 74.332 90.166 75.2892 90.6897C76.2465 91.2051 76.991 91.9905 77.5228 93.0459C78.0546 94.0932 78.3205 95.4186 78.3205 97.0222V109H75.4242V97.2185C75.4242 95.7377 75.0397 94.5841 74.2706 93.7577C73.5016 92.9232 72.4461 92.506 71.1044 92.506C70.1798 92.506 69.3535 92.7064 68.6253 93.1073C67.9054 93.5082 67.3367 94.0932 66.9195 94.8623C66.5022 95.6313 66.2936 96.564 66.2936 97.6604ZM90.4285 90.1497V92.6041H80.6597V90.1497H90.4285ZM83.5069 85.6335H86.4032V103.6C86.4032 104.418 86.5218 105.032 86.7591 105.441C87.0045 105.842 87.3154 106.112 87.6918 106.251C88.0763 106.382 88.4813 106.447 88.9067 106.447C89.2258 106.447 89.4876 106.431 89.6922 106.398C89.8967 106.357 90.0603 106.325 90.1831 106.3L90.7721 108.902C90.5758 108.975 90.3017 109.049 89.9499 109.123C89.5981 109.205 89.1522 109.245 88.6122 109.245C87.7941 109.245 86.9923 109.07 86.2068 108.718C85.4296 108.366 84.7832 107.83 84.2678 107.11C83.7605 106.39 83.5069 105.482 83.5069 104.386V85.6335ZM101.601 90.1497V92.6041H91.832V90.1497H101.601ZM94.6792 85.6335H97.5754V103.6C97.5754 104.418 97.6941 105.032 97.9313 105.441C98.1768 105.842 98.4877 106.112 98.864 106.251C99.2486 106.382 99.6536 106.447 100.079 106.447C100.398 106.447 100.66 106.431 100.864 106.398C101.069 106.357 101.233 106.325 101.355 106.3L101.944 108.902C101.748 108.975 101.474 109.049 101.122 109.123C100.77 109.205 100.324 109.245 99.7845 109.245C98.9663 109.245 98.1645 109.07 97.3791 108.718C96.6018 108.366 95.9555 107.83 95.4401 107.11C94.9328 106.39 94.6792 105.482 94.6792 104.386V85.6335ZM112.276 109.393C110.46 109.393 108.893 108.992 107.576 108.19C106.267 107.38 105.256 106.251 104.544 104.803C103.841 103.347 103.489 101.653 103.489 99.7221C103.489 97.7913 103.841 96.0895 104.544 94.6168C105.256 93.1359 106.246 91.9823 107.514 91.156C108.791 90.3215 110.28 89.9042 111.981 89.9042C112.963 89.9042 113.933 90.0679 114.89 90.3951C115.847 90.7224 116.719 91.2542 117.504 91.9905C118.289 92.7187 118.915 93.6841 119.382 94.8868C119.848 96.0895 120.081 97.5704 120.081 99.3294V100.557H105.551V98.0531H117.136C117.136 96.9895 116.923 96.0404 116.498 95.2059C116.08 94.3714 115.483 93.7127 114.706 93.23C113.937 92.7473 113.029 92.506 111.981 92.506C110.828 92.506 109.83 92.7923 108.987 93.365C108.152 93.9296 107.51 94.6659 107.06 95.5741C106.61 96.4822 106.385 97.4558 106.385 98.4949V100.164C106.385 101.588 106.631 102.794 107.122 103.784C107.621 104.766 108.312 105.515 109.196 106.03C110.079 106.537 111.106 106.791 112.276 106.791C113.037 106.791 113.724 106.685 114.338 106.472C114.96 106.251 115.495 105.924 115.945 105.49C116.395 105.048 116.743 104.5 116.989 103.846L119.787 104.631C119.492 105.58 118.997 106.415 118.302 107.135C117.606 107.846 116.747 108.403 115.725 108.804C114.702 109.196 113.552 109.393 112.276 109.393ZM110.509 87.597L113.503 81.9027H116.89L113.061 87.597H110.509Z" fill="#324158"/>
</svg>
