<svg width="114" height="137" viewBox="0 0 114 137" fill="none" xmlns="http://www.w3.org/2000/svg">
<path d="M47.6976 35.704V78.2944C47.6976 85.5296 45.7216 91.0624 41.7696 94.8928C37.8784 98.7232 32.4976 100.638 25.6272 100.638C18.3312 100.638 12.4944 98.6016 8.1168 94.528C3.8 90.4544 1.6416 84.5872 1.6416 76.9264H19.3344C19.3952 81.9728 21.2496 84.496 24.8976 84.496C28.1808 84.496 29.8224 82.4288 29.8224 78.2944V35.704H47.6976ZM90.925 100L78.157 76.288H76.2418V100H58.3666V35.704H86.5474C91.7154 35.704 96.093 36.616 99.6802 38.44C103.267 40.2032 105.973 42.6656 107.797 45.8272C109.621 48.928 110.533 52.424 110.533 56.3152C110.533 60.6928 109.317 64.5536 106.885 67.8976C104.514 71.1808 101.018 73.5216 96.397 74.92L110.898 100H90.925ZM76.2418 64.0672H85.0882C87.5202 64.0672 89.3442 63.4896 90.5602 62.3344C91.7762 61.1792 92.3842 59.5072 92.3842 57.3184C92.3842 55.2512 91.7458 53.64 90.469 52.4848C89.253 51.2688 87.4594 50.6608 85.0882 50.6608H76.2418V64.0672Z" fill="#2D2D2D"/>
<rect y="59" width="111" height="18" fill="white"/>
<path d="M33.1605 71.5235H36.7762V74H29.9246V62.3604H33.1605V71.5235ZM45.563 62.3604V74H42.3271V62.3604H45.563ZM65.2861 62.3604V74H62.0502V67.5776L59.8544 74H57.1467L54.9344 67.5281V74H51.6984V62.3604H55.6113L58.5336 69.922L61.3898 62.3604H65.2861ZM80.6168 66.2403C80.6168 66.9447 80.4517 67.5886 80.1215 68.172C79.8023 68.7443 79.3125 69.2066 78.6521 69.5588C78.0028 69.9 77.2048 70.0706 76.2582 70.0706H74.6567V74H71.4208V62.3604H76.2582C77.1938 62.3604 77.9862 62.5255 78.6356 62.8557C79.296 63.1859 79.7913 63.6427 80.1215 64.2261C80.4517 64.8094 80.6168 65.4808 80.6168 66.2403ZM75.9445 67.4951C76.8581 67.4951 77.3148 67.0768 77.3148 66.2403C77.3148 65.3928 76.8581 64.969 75.9445 64.969H74.6567V67.4951H75.9445ZM89.4454 64.9525V66.8512H93.1602V69.3112H89.4454V71.4079H93.6555V74H86.2095V62.3604H93.6555V64.9525H89.4454ZM106.828 74L104.566 70.7145L102.634 74H98.9527L102.734 68.0399L98.8207 62.3604H102.634L104.83 65.5634L106.712 62.3604H110.394L106.663 68.2215L110.642 74H106.828Z" fill="#2D2D2D"/>
</svg>
