<svg width="2255" height="1470" viewBox="0 0 2255 1470" fill="none" xmlns="http://www.w3.org/2000/svg">
<path d="M958.014 367.093C910.892 489.913 999.185 579.394 1049.22 608.782C1024.01 598.774 966.83 564.852 939.773 509.218C912.032 461.336 919.633 367.093 930.653 337.452C941.673 307.811 997.155 204.447 1121.8 201.787C1221.52 199.659 1281.66 258.916 1299.27 288.81C1295.22 283.49 1282.09 269.582 1262.02 256.509C1241.96 243.437 1203.25 233.075 1186.4 229.528C1130.29 222.181 1006.05 239.409 958.014 367.093Z" fill="#0091D8"/>
<path d="M1156 646.403C1122.56 651.571 1085.57 646.783 1071.26 643.743L991.455 776.748C999.055 779.278 1017.6 785.336 1030.98 789.288C1047.7 794.228 1089.5 804.109 1143.84 800.308C1187.31 797.268 1252.9 776.748 1280.27 766.867L1217.56 628.922C1210.97 632.596 1189.44 641.235 1156 646.403Z" fill="url(#paint0_linear_125_2)"/>
<path d="M893.032 482.617L801.828 638.043C800.688 638.043 791.568 626.87 764.207 582.181C730.006 526.319 718.606 450.316 717.465 388.374C716.325 326.431 742.166 254.989 755.467 227.248C768.767 199.507 832.61 78.6627 967.134 29.261C1074.75 -10.2604 1149.54 -0.380004 1173.48 9.50034L1082.66 163.026C1079.49 162.646 1061.23 167.206 1013.5 188.487C953.834 215.088 918.873 273.99 893.032 335.172C872.359 384.118 884.421 453.863 893.032 482.617Z" fill="url(#paint1_linear_125_2)"/>
<path d="M945.474 1211.86V1159.04L976.255 1078.86V1211.86H945.474Z" fill="#0091D8"/>
<path d="M2223.08 1212.24V1159.42L2253.86 1079.24V1212.24H2223.08Z" fill="#0091D8"/>
<path d="M946.994 1171.2C938.253 1181.08 915.528 1202.21 894.552 1207.68C868.331 1214.52 805.826 1233.29 753.187 1175.76C700.398 1118.08 723.292 1038.96 726.966 1030.6C731.711 1019.79 768.326 953.225 828.049 950.793C888.244 948.338 923.433 973.214 941.673 993.735C959.914 1014.26 973.595 1042.76 975.495 1065.94C977.395 1089.12 974.355 1135.1 965.614 1151.06C958.622 1163.83 950.285 1169.81 946.994 1171.2Z" fill="#0091D8"/>
<path d="M932.553 1132.82L946.994 1171.2L932.553 1132.82ZM932.553 1132.82C925.333 1147.39 902.228 1178.04 867.571 1184.12C824.249 1191.72 783.588 1178.42 755.467 1127.12C727.346 1075.82 764.207 1015.4 785.868 1001.72C807.529 988.035 842.87 968.274 888.852 989.555C934.833 1010.84 945.854 1053.78 945.474 1081.52C945.17 1103.71 936.733 1124.97 932.553 1132.82ZM946.994 1171.2C938.253 1181.08 915.528 1202.21 894.552 1207.68C868.331 1214.52 805.826 1233.29 753.187 1175.76C700.398 1118.08 723.292 1038.96 726.966 1030.6C731.711 1019.79 768.326 953.225 828.049 950.793C888.244 948.338 923.433 973.214 941.673 993.735C959.914 1014.26 973.595 1042.76 975.495 1065.94C977.395 1089.12 974.355 1135.1 965.614 1151.06C958.622 1163.83 950.285 1169.81 946.994 1171.2Z" stroke="#0091D8" stroke-width="0.760027"/>
<path d="M846.67 1186.4C900.818 1186.4 944.714 1140.29 944.714 1083.42C944.714 1026.54 900.818 980.435 846.67 980.435C792.522 980.435 748.627 1026.54 748.627 1083.42C748.627 1140.29 792.522 1186.4 846.67 1186.4Z" fill="white"/>
<path d="M768.767 1069.36C755.999 1112.22 785.997 1150.81 802.588 1164.74C800.818 1163.73 793.088 1157.83 776.368 1142.32C755.467 1122.94 749.767 1066.7 765.727 1040.48C781.688 1014.26 802.208 992.975 846.29 992.595C881.555 992.291 904.052 1013.75 910.892 1024.52C901.392 1017.43 877.299 1002.78 856.93 1000.96C831.47 998.676 784.728 1015.78 768.767 1069.36Z" fill="#0091D8" stroke="#0091D8" stroke-width="0.760027"/>
<path d="M2225.46 1172.89C2216.72 1182.77 2193.99 1203.9 2173.02 1209.37C2146.79 1216.21 2084.29 1234.98 2031.65 1177.45C1978.87 1119.76 2001.76 1040.65 2005.43 1032.28C2010.18 1021.48 2046.8 954.921 2106.51 952.481C2166.71 950.026 2201.9 974.902 2220.14 995.422C2238.38 1015.94 2252.06 1044.44 2253.96 1067.62C2255.86 1090.81 2252.82 1136.79 2244.08 1152.75C2237.09 1165.52 2228.76 1171.5 2225.46 1172.89Z" fill="#0091D8"/>
<path d="M2211.02 1134.51L2225.46 1172.89L2211.02 1134.51ZM2211.02 1134.51C2203.8 1149.08 2180.69 1179.73 2146.03 1185.81C2102.71 1193.41 2062.05 1180.11 2033.93 1128.81C2005.81 1077.51 2042.67 1017.08 2064.33 1003.4C2085.99 989.722 2121.33 969.961 2167.32 991.242C2213.3 1012.52 2224.32 1055.46 2223.94 1083.21C2223.63 1105.4 2215.2 1126.66 2211.02 1134.51ZM2225.46 1172.89C2216.72 1182.77 2193.99 1203.9 2173.02 1209.37C2146.79 1216.21 2084.29 1234.98 2031.65 1177.45C1978.87 1119.76 2001.76 1040.65 2005.43 1032.28C2010.18 1021.48 2046.8 954.921 2106.51 952.481C2166.71 950.026 2201.9 974.902 2220.14 995.422C2238.38 1015.94 2252.06 1044.44 2253.96 1067.62C2255.86 1090.81 2252.82 1136.79 2244.08 1152.75C2237.09 1165.52 2228.76 1171.5 2225.46 1172.89Z" stroke="#0091D8" stroke-width="0.760027"/>
<path d="M2125.13 1188.09C2179.28 1188.09 2223.18 1141.98 2223.18 1085.11C2223.18 1028.23 2179.28 982.122 2125.13 982.122C2070.99 982.122 2027.09 1028.23 2027.09 1085.11C2027.09 1141.98 2070.99 1188.09 2125.13 1188.09Z" fill="white"/>
<path d="M2047.23 1071.05C2034.46 1113.91 2064.46 1152.5 2081.05 1166.43C2079.28 1165.42 2071.55 1159.51 2054.83 1144.01C2033.93 1124.63 2028.23 1068.39 2044.19 1042.16C2060.15 1015.94 2080.67 994.663 2124.75 994.282C2160.02 993.978 2182.52 1015.43 2189.36 1026.2C2179.86 1019.11 2155.76 1004.47 2135.39 1002.64C2109.93 1000.36 2063.19 1017.46 2047.23 1071.05Z" fill="#0091D8" stroke="#0091D8" stroke-width="0.760027"/>
<path d="M1894.09 1171.37C1885.35 1181.25 1862.62 1202.38 1841.64 1207.85C1815.42 1214.69 1752.92 1233.46 1700.28 1175.93C1647.5 1118.24 1670.39 1039.13 1674.06 1030.76C1678.81 1019.96 1715.43 953.401 1775.14 950.961C1835.34 948.506 1870.53 973.382 1888.77 993.902C1907.01 1014.42 1920.69 1042.92 1922.59 1066.1C1924.49 1089.29 1921.45 1135.27 1912.71 1151.23C1905.71 1164 1897.38 1169.98 1894.09 1171.37Z" fill="#0091D8"/>
<path d="M1879.65 1132.99L1894.09 1171.37L1879.65 1132.99ZM1879.65 1132.99C1872.43 1147.56 1849.32 1178.21 1814.66 1184.29C1771.34 1191.89 1730.68 1178.59 1702.56 1127.29C1674.44 1075.99 1711.3 1015.56 1732.96 1001.88C1754.62 988.202 1789.96 968.441 1835.94 989.722C1881.93 1011 1892.95 1053.94 1892.57 1081.69C1892.26 1103.88 1883.83 1125.14 1879.65 1132.99ZM1894.09 1171.37C1885.35 1181.25 1862.62 1202.38 1841.64 1207.85C1815.42 1214.69 1752.92 1233.46 1700.28 1175.93C1647.5 1118.24 1670.39 1039.13 1674.06 1030.76C1678.81 1019.96 1715.43 953.401 1775.14 950.961C1835.34 948.506 1870.53 973.382 1888.77 993.902C1907.01 1014.42 1920.69 1042.92 1922.59 1066.1C1924.49 1089.29 1921.45 1135.27 1912.71 1151.23C1905.71 1164 1897.38 1169.98 1894.09 1171.37Z" stroke="#0091D8" stroke-width="0.760027"/>
<path d="M1793.76 1186.57C1847.91 1186.57 1891.81 1140.46 1891.81 1083.59C1891.81 1026.71 1847.91 980.602 1793.76 980.602C1739.61 980.602 1695.72 1026.71 1695.72 1083.59C1695.72 1140.46 1739.61 1186.57 1793.76 1186.57Z" fill="white"/>
<path d="M1715.86 1069.53C1703.09 1112.39 1733.09 1150.98 1749.68 1164.91C1747.91 1163.9 1740.18 1157.99 1723.46 1142.49C1702.56 1123.11 1696.86 1066.87 1712.82 1040.64C1728.78 1014.42 1749.3 993.142 1793.38 992.762C1828.65 992.458 1851.14 1013.91 1857.98 1024.68C1848.48 1017.59 1824.39 1002.95 1804.02 1001.12C1778.56 998.843 1731.82 1015.94 1715.86 1069.53Z" fill="#0091D8" stroke="#0091D8" stroke-width="0.760027"/>
<path d="M1892.09 1016.92V869.471H1922.87V1062.9L1917.17 1056.44L1892.09 1016.92Z" fill="#0091D8"/>
<path d="M256.889 1184.5C253.849 1179.03 253.849 1169.81 254.229 1165.88C232.568 1178.8 208.627 1187.54 182.786 1187.54C156.946 1187.54 81.7029 1184.5 47.8817 1111.92C14.0605 1039.34 36.4813 991.075 47.8817 969.415C59.2821 947.754 101.084 895.692 152.005 893.412C202.927 891.132 242.449 893.792 280.45 932.173C318.451 970.555 327.192 1013.12 325.672 1055.3C324.456 1089.04 309.204 1111.41 301.731 1118.38C303.251 1119.39 304.619 1120.43 297.931 1116.48C291.242 1112.53 273.863 1108.25 266.009 1106.6L275.89 1116.48C282.35 1122.94 290.33 1137 296.41 1151.06C302.491 1165.12 314.271 1190.2 345.432 1198.18C370.361 1204.57 390.781 1200.84 397.874 1198.18C395.087 1197.55 387.386 1195.52 378.873 1192.48C368.233 1188.68 347.332 1171.96 335.552 1157.9C323.844 1143.92 331.279 1132.58 338.458 1121.63L338.592 1121.42C345.812 1110.4 349.612 1091.78 354.173 1076.96C358.733 1062.14 364.433 1007.42 331.372 949.274C298.311 891.132 231.428 859.971 164.926 863.391C98.4235 866.811 37.2415 915.073 15.9607 966.755C-5.32008 1018.44 -5.32008 1080.38 24.321 1130.54C53.9621 1180.7 88.1631 1203.5 150.105 1217.56C199.659 1228.81 248.022 1209.33 266.009 1198.18C264.236 1195.9 259.929 1189.97 256.889 1184.5Z" fill="#0091D8" stroke="#0091D8" stroke-width="0.760027"/>
<path d="M220.408 910.892C248.377 920.316 271.583 946.233 279.69 958.014C247.009 929.893 225.348 922.673 192.287 920.772C159.226 918.872 130.345 931.413 104.504 953.834C78.6628 976.254 52.4419 1017.68 59.2821 1075.06C64.7543 1120.96 101.844 1157.01 119.704 1169.3C111.344 1164.99 90.0632 1151.36 71.8224 1131.3C49.0216 1106.22 32.301 1047.7 45.2214 1004C58.1419 960.294 91.2032 931.033 118.564 915.072C145.925 899.112 185.447 899.112 220.408 910.892Z" fill="#0091D8"/>
<path d="M454.116 1116.86V959.154H422.195V1119.9C425.362 1139.03 440.056 1182.07 473.497 1201.22C515.298 1225.16 564.7 1219.46 597.761 1198.56C624.21 1181.84 641.463 1139.15 646.783 1119.9V959.154H613.342V1115.34C613.595 1117.49 612.05 1126.06 603.841 1143.08C593.581 1164.36 574.58 1185.64 521.759 1185.64C479.501 1185.64 459.056 1139.79 454.116 1116.86Z" fill="#0091D8"/>
<path d="M421.435 959.154H422.195H421.435ZM422.195 959.154H454.116V1116.86C459.056 1139.79 479.501 1185.64 521.758 1185.64C574.58 1185.64 593.581 1164.36 603.841 1143.08C612.05 1126.06 613.595 1117.49 613.342 1115.34V959.154H646.783V1119.9C641.463 1139.15 624.21 1181.84 597.761 1198.56C564.7 1219.46 515.298 1225.16 473.497 1201.22C440.056 1182.07 425.362 1139.03 422.195 1119.9V959.154Z" stroke="#0091D8" stroke-width="0.760027"/>
<path d="M984.995 1253.28L2254.24 1246.06V1258.98L984.995 1253.28Z" fill="#0091D8"/>
<path d="M1282.93 1272.67L13.6805 1265.44V1278.37L1282.93 1272.67Z" fill="#0091D8"/>
<path d="M1076.96 868.711H1045.04V1212.24H1076.96V868.711Z" fill="#0091D8"/>
<path d="M1180.32 957.634H1148.4V1212.24H1180.32V957.634Z" fill="#0091D8"/>
<path d="M1180.32 864.911H1148.4V924.193H1180.32V864.911Z" fill="#0091D8"/>
<path d="M1587.7 961.434H1555.78V1216.04H1587.7V961.434Z" fill="#0091D8"/>
<path d="M1587.7 868.711H1555.78V927.993H1587.7V868.711Z" fill="#0091D8"/>
<path d="M1285.21 959.534H1251L1356.27 1212.24H1387.43L1494.97 959.534H1460.39L1371.47 1167.4L1285.21 959.534Z" fill="#0091D8"/>
<path d="M1308.39 242.069L1388.19 110.204C1394.02 113.877 1411.83 128.825 1436.45 159.226C1467.23 197.227 1483.57 242.069 1489.27 254.609C1494.97 267.15 1510.55 299.451 1516.63 365.573C1521.95 442.336 1511.31 477.677 1505.61 501.238C1499.91 524.799 1481.29 558.62 1476.35 587.121C1471.41 615.622 1486.99 654.383 1539.05 683.264C1580.7 706.369 1633.43 718.733 1654.58 722.026C1655.85 722.533 1652.37 726.586 1628.36 738.746C1598.34 753.947 1543.61 764.587 1484.71 760.407C1425.81 756.227 1375.27 676.804 1349.81 607.262C1329.44 551.628 1295.22 504.025 1280.65 487.177C1286.98 489.458 1303.9 495.462 1320.93 501.238C1337.95 507.014 1345.76 507.191 1347.53 506.558C1356.78 486.671 1373.37 431.012 1365.77 367.473C1358.17 303.935 1324.35 257.396 1308.39 242.069Z" fill="url(#paint2_linear_125_2)"/>
<path d="M123.105 1336.48C120.24 1330.46 116.09 1325.81 110.656 1322.55C105.222 1319.19 98.8985 1317.51 91.6859 1317.51C84.4732 1317.51 77.9522 1319.19 72.1228 1322.55C66.3922 1325.81 61.8472 1330.56 58.4879 1336.78C55.2274 1342.91 53.5971 1350.02 53.5971 1358.12C53.5971 1366.22 55.2274 1373.34 58.4879 1379.46C61.8472 1385.59 66.3922 1390.33 72.1228 1393.69C77.9522 1396.95 84.4732 1398.59 91.6859 1398.59C101.764 1398.59 110.063 1395.57 116.584 1389.54C123.105 1383.52 126.909 1375.37 127.996 1365.09H86.7951V1354.13H142.372V1364.5C141.582 1373 138.914 1380.8 134.369 1387.92C129.824 1394.93 123.846 1400.51 116.436 1404.66C109.026 1408.71 100.776 1410.74 91.6859 1410.74C82.1019 1410.74 73.3578 1408.51 65.4535 1404.07C57.5492 1399.52 51.2752 1393.25 46.6315 1385.25C42.0865 1377.25 39.814 1368.2 39.814 1358.12C39.814 1348.04 42.0865 1339.01 46.6315 1331.01C51.2752 1322.9 57.5492 1316.63 65.4535 1312.18C73.3578 1307.63 82.1019 1305.36 91.6859 1305.36C102.653 1305.36 112.336 1308.08 120.734 1313.52C129.231 1318.95 135.406 1326.6 139.26 1336.48H123.105ZM309.15 1366.13C309.15 1368.69 309.002 1371.42 308.705 1374.28H243.792C244.286 1382.28 247.003 1388.55 251.943 1393.1C256.982 1397.55 263.058 1399.77 270.172 1399.77C276.001 1399.77 280.843 1398.43 284.696 1395.77C288.648 1393 291.415 1389.34 292.996 1384.8H307.52C305.346 1392.61 300.999 1398.98 294.478 1403.92C287.957 1408.76 279.855 1411.19 270.172 1411.19C262.465 1411.19 255.549 1409.46 249.423 1406C243.396 1402.54 238.654 1397.64 235.196 1391.32C231.738 1384.9 230.008 1377.49 230.008 1369.09C230.008 1360.69 231.688 1353.33 235.047 1347.01C238.407 1340.69 243.1 1335.85 249.127 1332.49C255.253 1329.03 262.268 1327.3 270.172 1327.3C277.879 1327.3 284.696 1328.98 290.624 1332.34C296.553 1335.69 301.098 1340.34 304.259 1346.27C307.52 1352.1 309.15 1358.72 309.15 1366.13ZM295.219 1363.31C295.219 1358.18 294.083 1353.78 291.81 1350.12C289.538 1346.37 286.425 1343.55 282.473 1341.68C278.62 1339.7 274.322 1338.71 269.579 1338.71C262.762 1338.71 256.932 1340.89 252.091 1345.23C247.348 1349.58 244.631 1355.61 243.94 1363.31H295.219ZM430.548 1411.19C424.323 1411.19 418.741 1410.15 413.8 1408.07C408.86 1405.9 404.958 1402.93 402.092 1399.18C399.227 1395.33 397.646 1390.93 397.35 1385.99H411.281C411.676 1390.04 413.553 1393.35 416.913 1395.92C420.371 1398.49 424.866 1399.77 430.399 1399.77C435.537 1399.77 439.588 1398.63 442.552 1396.36C445.516 1394.09 446.998 1391.22 446.998 1387.76C446.998 1384.21 445.418 1381.59 442.256 1379.91C439.094 1378.13 434.203 1376.4 427.584 1374.72C421.557 1373.14 416.616 1371.56 412.763 1369.98C409.009 1368.3 405.748 1365.88 402.981 1362.72C400.314 1359.46 398.98 1355.21 398.98 1349.98C398.98 1345.83 400.215 1342.02 402.685 1338.56C405.155 1335.1 408.663 1332.39 413.208 1330.41C417.753 1328.34 422.94 1327.3 428.769 1327.3C437.76 1327.3 445.022 1329.57 450.555 1334.11C456.088 1338.66 459.052 1344.88 459.448 1352.79H445.961C445.665 1348.54 443.936 1345.13 440.774 1342.57C437.711 1340 433.561 1338.71 428.325 1338.71C423.483 1338.71 419.63 1339.75 416.765 1341.82C413.899 1343.9 412.467 1346.62 412.467 1349.98C412.467 1352.64 413.306 1354.86 414.986 1356.64C416.765 1358.32 418.938 1359.7 421.507 1360.79C424.175 1361.78 427.831 1362.92 432.474 1364.2C438.304 1365.78 443.046 1367.36 446.702 1368.95C450.358 1370.43 453.47 1372.7 456.039 1375.76C458.707 1378.83 460.09 1382.82 460.189 1387.76C460.189 1392.21 458.954 1396.22 456.484 1399.77C454.013 1403.33 450.506 1406.14 445.961 1408.22C441.515 1410.2 436.377 1411.19 430.548 1411.19ZM570.522 1339.75V1387.62C570.522 1391.57 571.362 1394.38 573.041 1396.06C574.721 1397.64 577.636 1398.43 581.785 1398.43H591.715V1409.85H579.562C572.053 1409.85 566.422 1408.12 562.667 1404.66C558.912 1401.2 557.035 1395.52 557.035 1387.62V1339.75H546.513V1328.63H557.035V1308.18H570.522V1328.63H591.715V1339.75H570.522ZM677.86 1368.95C677.86 1360.65 679.54 1353.38 682.899 1347.16C686.259 1340.83 690.853 1335.95 696.682 1332.49C702.611 1329.03 709.181 1327.3 716.394 1327.3C723.508 1327.3 729.683 1328.83 734.919 1331.89C740.156 1334.96 744.059 1338.81 746.628 1343.45V1328.63H760.263V1409.85H746.628V1394.73C743.96 1399.48 739.958 1403.43 734.623 1406.59C729.386 1409.65 723.261 1411.19 716.246 1411.19C709.033 1411.19 702.512 1409.41 696.682 1405.84C690.853 1402.29 686.259 1397.3 682.899 1390.88C679.54 1384.46 677.86 1377.15 677.86 1368.95ZM746.628 1369.09C746.628 1362.96 745.393 1357.63 742.923 1353.08C740.452 1348.54 737.093 1345.08 732.845 1342.71C728.695 1340.24 724.1 1339.01 719.061 1339.01C714.022 1339.01 709.428 1340.19 705.278 1342.57C701.129 1344.94 697.819 1348.39 695.349 1352.94C692.879 1357.48 691.644 1362.82 691.644 1368.95C691.644 1375.17 692.879 1380.6 695.349 1385.25C697.819 1389.79 701.129 1393.3 705.278 1395.77C709.428 1398.14 714.022 1399.32 719.061 1399.32C724.1 1399.32 728.695 1398.14 732.845 1395.77C737.093 1393.3 740.452 1389.79 742.923 1385.25C745.393 1380.6 746.628 1375.22 746.628 1369.09ZM699.943 1319.89C700.635 1314.85 702.265 1310.99 704.834 1308.33C707.501 1305.66 710.811 1304.33 714.764 1304.33C716.641 1304.33 718.222 1304.67 719.506 1305.36C720.889 1305.95 722.52 1306.84 724.397 1308.03C725.78 1309.02 727.015 1309.81 728.102 1310.4C729.189 1310.89 730.374 1311.15 731.659 1311.15C733.339 1311.15 734.771 1310.6 735.957 1309.51C737.143 1308.42 737.884 1306.84 738.18 1304.77H745.887C745.294 1309.71 743.664 1313.52 740.996 1316.18C738.328 1318.85 735.018 1320.18 731.066 1320.18C729.189 1320.18 727.509 1319.89 726.027 1319.29C724.644 1318.6 723.063 1317.61 721.285 1316.33C719.704 1315.34 718.419 1314.6 717.431 1314.11C716.542 1313.62 715.455 1313.36 714.171 1313.36C712.491 1313.36 711.058 1313.91 709.873 1315C708.786 1316.09 708.094 1317.71 707.798 1319.89H699.943ZM893.32 1411.19C885.713 1411.19 878.796 1409.46 872.572 1406C866.446 1402.54 861.604 1397.64 858.048 1391.32C854.589 1384.9 852.857 1377.49 852.857 1369.09C852.857 1360.79 854.635 1353.48 858.192 1347.16C861.848 1340.73 866.788 1335.85 873.013 1332.49C879.237 1329.03 886.207 1327.3 893.913 1327.3C901.62 1327.3 908.582 1329.03 914.806 1332.49C921.031 1335.85 925.926 1340.69 929.483 1347.01C933.138 1353.33 934.962 1360.69 934.962 1369.09C934.962 1377.49 933.085 1384.9 929.331 1391.32C925.675 1397.64 920.689 1402.54 914.366 1406C908.042 1409.46 901.027 1411.19 893.32 1411.19ZM893.32 1399.32C898.162 1399.32 902.707 1398.19 906.955 1395.92C911.204 1393.65 914.609 1390.23 917.178 1385.69C919.845 1381.14 921.183 1375.61 921.183 1369.09C921.183 1362.57 919.899 1357.04 917.33 1352.49C914.761 1347.95 911.401 1344.59 907.252 1342.41C903.102 1340.14 898.603 1339.01 893.761 1339.01C888.821 1339.01 884.276 1340.14 880.126 1342.41C876.075 1344.59 872.815 1347.95 870.345 1352.49C867.875 1357.04 866.644 1362.57 866.644 1369.09C866.644 1375.71 867.829 1381.3 870.2 1385.84C872.67 1390.39 875.931 1393.79 879.982 1396.06C884.033 1398.24 888.479 1399.32 893.32 1399.32Z" fill="#0091D8"/>
<path d="M1146.52 1356.25C1146.52 1358.81 1146.36 1361.53 1146.07 1364.4H1081.15C1081.65 1372.4 1084.37 1378.67 1089.31 1383.22C1094.35 1387.66 1100.42 1389.89 1107.53 1389.89C1113.36 1389.89 1118.2 1388.55 1122.06 1385.89C1126.01 1383.12 1128.78 1379.46 1130.36 1374.92H1144.88C1142.71 1382.72 1138.36 1389.1 1131.84 1394.04C1125.32 1398.88 1117.22 1401.31 1107.53 1401.31C1099.83 1401.31 1092.91 1399.57 1086.79 1396.12C1080.76 1392.66 1076.02 1387.76 1072.56 1381.44C1069.1 1375.02 1067.37 1367.61 1067.37 1359.21C1067.37 1350.81 1069.05 1343.45 1072.41 1337.13C1075.77 1330.81 1080.46 1325.97 1086.49 1322.61C1092.61 1319.15 1099.63 1317.42 1107.53 1317.42C1115.24 1317.42 1122.06 1319.1 1127.99 1322.45C1133.91 1325.81 1138.46 1330.46 1141.62 1336.39C1144.88 1342.22 1146.52 1348.83 1146.52 1356.25ZM1132.58 1353.43C1132.58 1348.3 1131.44 1343.89 1129.17 1340.24C1126.9 1336.48 1123.79 1333.67 1119.84 1331.8C1115.99 1329.82 1111.68 1328.83 1106.94 1328.83C1100.12 1328.83 1094.29 1331 1089.45 1335.35C1084.71 1339.7 1082 1345.73 1081.31 1353.43H1132.58ZM1336.83 1317.27C1343.15 1317.27 1348.78 1318.6 1353.72 1321.27C1358.66 1323.84 1362.56 1327.74 1365.43 1332.98C1368.29 1338.22 1369.73 1344.59 1369.73 1352.1V1399.97H1356.39V1354.03C1356.39 1345.92 1354.36 1339.75 1350.31 1335.5C1346.36 1331.15 1340.98 1328.98 1334.16 1328.98C1327.14 1328.98 1321.56 1331.25 1317.41 1335.79C1313.26 1340.24 1311.18 1346.71 1311.18 1355.21V1399.97H1297.84V1354.03C1297.84 1345.92 1295.82 1339.75 1291.77 1335.5C1287.82 1331.15 1282.43 1328.98 1275.61 1328.98C1268.6 1328.98 1263.02 1331.25 1258.87 1335.79C1254.72 1340.24 1252.65 1346.71 1252.65 1355.21V1399.97H1239.16V1318.75H1252.65V1330.46C1255.31 1326.21 1258.87 1322.95 1263.32 1320.68C1267.86 1318.4 1272.85 1317.27 1278.28 1317.27C1285.1 1317.27 1291.13 1318.8 1296.36 1321.86C1301.6 1324.92 1305.51 1329.42 1308.07 1335.35C1310.35 1329.62 1314.1 1325.18 1319.34 1322.01C1324.57 1318.85 1330.4 1317.27 1336.83 1317.27Z" fill="#0091D8"/>
<path d="M1524.7 1401.77C1517.88 1401.77 1511.75 1400.58 1506.32 1398.21C1500.98 1395.74 1496.79 1392.38 1493.73 1388.13C1490.66 1383.78 1489.08 1378.8 1488.98 1373.16H1503.36C1503.85 1378 1505.83 1382.1 1509.28 1385.46C1512.84 1388.72 1517.98 1390.36 1524.7 1390.36C1531.12 1390.36 1536.16 1388.77 1539.81 1385.61C1543.57 1382.35 1545.45 1378.2 1545.45 1373.16C1545.45 1369.21 1544.36 1366 1542.19 1363.53C1540.01 1361.06 1537.3 1359.18 1534.04 1357.89C1530.78 1356.61 1526.38 1355.23 1520.84 1353.74C1514.03 1351.97 1508.55 1350.19 1504.4 1348.41C1500.35 1346.63 1496.84 1343.86 1493.87 1340.11C1491.01 1336.26 1489.58 1331.12 1489.58 1324.7C1489.58 1319.06 1491.01 1314.08 1493.87 1309.73C1496.74 1305.38 1500.74 1302.02 1505.88 1299.65C1511.12 1297.28 1517.09 1296.1 1523.81 1296.1C1533.49 1296.1 1541.4 1298.51 1547.52 1303.35C1553.75 1308.2 1557.26 1314.62 1558.05 1322.62H1543.23C1542.73 1318.67 1540.66 1315.21 1537 1312.25C1533.35 1309.18 1528.51 1307.66 1522.48 1307.66C1516.85 1307.66 1512.25 1309.14 1508.69 1312.1C1505.13 1314.97 1503.36 1319.02 1503.36 1324.26C1503.36 1328.01 1504.4 1331.07 1506.47 1333.44C1508.65 1335.82 1511.26 1337.64 1514.32 1338.92C1517.48 1340.11 1521.89 1341.49 1527.52 1343.07C1534.33 1344.95 1539.81 1346.83 1543.96 1348.71C1548.11 1350.48 1551.67 1353.3 1554.64 1357.16C1557.6 1360.91 1559.08 1366.05 1559.08 1372.57C1559.08 1377.61 1557.75 1382.35 1555.08 1386.8C1552.42 1391.24 1548.46 1394.85 1543.23 1397.61C1537.99 1400.38 1531.81 1401.77 1524.7 1401.77ZM1648.73 1359.82C1648.73 1351.53 1650.41 1344.26 1653.77 1338.03C1657.13 1331.71 1661.72 1326.82 1667.55 1323.37C1673.48 1319.91 1680.05 1318.18 1687.27 1318.18C1694.38 1318.18 1700.55 1319.71 1705.79 1322.77C1711.03 1325.84 1714.93 1329.69 1717.5 1334.33V1319.51H1731.14V1400.73H1717.5V1385.61C1714.83 1390.36 1710.83 1394.31 1705.49 1397.47C1700.26 1400.53 1694.13 1402.07 1687.12 1402.07C1679.9 1402.07 1673.38 1400.29 1667.55 1396.72C1661.72 1393.17 1657.13 1388.18 1653.77 1381.76C1650.41 1375.34 1648.73 1368.03 1648.73 1359.82ZM1717.5 1359.97C1717.5 1353.84 1716.26 1348.51 1713.79 1343.96C1711.32 1339.42 1707.96 1335.96 1703.71 1333.59C1699.56 1331.12 1694.97 1329.89 1689.94 1329.89C1684.9 1329.89 1680.3 1331.07 1676.15 1333.44C1672 1335.82 1668.69 1339.27 1666.22 1343.82C1663.75 1348.36 1662.51 1353.7 1662.51 1359.82C1662.51 1366.05 1663.75 1371.48 1666.22 1376.13C1668.69 1380.67 1672 1384.18 1676.15 1386.65C1680.3 1389.02 1684.9 1390.2 1689.94 1390.2C1694.97 1390.2 1699.56 1389.02 1703.71 1386.65C1707.96 1384.18 1711.32 1380.67 1713.79 1376.13C1716.26 1371.48 1717.5 1366.1 1717.5 1359.97ZM1900.8 1319.51V1400.73H1887.31V1388.72C1884.75 1392.87 1881.14 1396.13 1876.49 1398.5C1871.95 1400.78 1866.91 1401.92 1861.37 1401.92C1855.05 1401.92 1849.37 1400.63 1844.33 1398.06C1839.3 1395.39 1835.29 1391.44 1832.33 1386.21C1829.46 1380.97 1828.03 1374.59 1828.03 1367.08V1319.51H1841.37V1365.3C1841.37 1373.31 1843.39 1379.49 1847.44 1383.83C1851.49 1388.08 1857.03 1390.2 1864.04 1390.2C1871.25 1390.2 1876.94 1387.98 1881.09 1383.54C1885.24 1379.09 1887.31 1372.62 1887.31 1364.12V1319.51H1900.8ZM1879.31 1296.54L1847.74 1313.43V1303.35L1879.31 1284.83V1296.54ZM1993.38 1359.82C1993.38 1351.53 1995.06 1344.26 1998.41 1338.03C2001.77 1331.71 2006.36 1326.82 2012.19 1323.37C2018.12 1319.91 2024.74 1318.18 2032.05 1318.18C2038.38 1318.18 2044.26 1319.66 2049.69 1322.62C2055.13 1325.49 2059.28 1329.29 2062.14 1334.04V1291.06H2075.78V1400.73H2062.14V1385.46C2059.48 1390.3 2055.52 1394.31 2050.29 1397.47C2045.05 1400.53 2038.92 1402.07 2031.91 1402.07C2024.7 1402.07 2018.12 1400.29 2012.19 1396.72C2006.36 1393.17 2001.77 1388.18 1998.41 1381.76C1995.06 1375.34 1993.38 1368.03 1993.38 1359.82ZM2062.14 1359.97C2062.14 1353.84 2060.9 1348.51 2058.43 1343.96C2055.96 1339.42 2052.6 1335.96 2048.36 1333.59C2044.21 1331.12 2039.62 1329.89 2034.58 1329.89C2029.54 1329.89 2024.94 1331.07 2020.79 1333.44C2016.64 1335.82 2013.33 1339.27 2010.86 1343.82C2008.39 1348.36 2007.16 1353.7 2007.16 1359.82C2007.16 1366.05 2008.39 1371.48 2010.86 1376.13C2013.33 1380.67 2016.64 1384.18 2020.79 1386.65C2024.94 1389.02 2029.54 1390.2 2034.58 1390.2C2039.62 1390.2 2044.21 1389.02 2048.36 1386.65C2052.6 1384.18 2055.96 1380.67 2058.43 1376.13C2060.9 1371.48 2062.14 1366.1 2062.14 1359.97ZM2247.51 1357.01C2247.51 1359.57 2247.36 1362.29 2247.07 1365.16H2182.15C2182.65 1373.16 2185.37 1379.43 2190.31 1383.98C2195.35 1388.42 2201.42 1390.65 2208.53 1390.65C2214.36 1390.65 2219.2 1389.31 2223.06 1386.65C2227.01 1383.88 2229.77 1380.22 2231.36 1375.68H2245.88C2243.71 1383.48 2239.36 1389.86 2232.84 1394.8C2226.32 1399.64 2218.21 1402.07 2208.53 1402.07C2200.83 1402.07 2193.91 1400.33 2187.78 1396.88C2181.76 1393.42 2177.01 1388.52 2173.56 1382.2C2170.1 1375.78 2168.37 1368.37 2168.37 1359.97C2168.37 1351.57 2170.05 1344.21 2173.41 1337.89C2176.77 1331.57 2181.46 1326.73 2187.49 1323.37C2193.61 1319.91 2200.63 1318.18 2208.53 1318.18C2216.24 1318.18 2223.06 1319.86 2228.98 1323.21C2234.91 1326.57 2239.46 1331.22 2242.62 1337.15C2245.88 1342.98 2247.51 1349.59 2247.51 1357.01ZM2233.58 1354.19C2233.58 1349.06 2232.44 1344.65 2230.17 1341C2227.9 1337.24 2224.79 1334.43 2220.84 1332.56C2216.98 1330.58 2212.68 1329.59 2207.94 1329.59C2201.12 1329.59 2195.29 1331.76 2190.45 1336.11C2185.71 1340.46 2183 1346.49 2182.3 1354.19H2233.58Z" fill="#0091D8"/>
<defs>
<linearGradient id="paint0_linear_125_2" x1="1296.61" y1="763.447" x2="1050.74" y2="629.302" gradientUnits="userSpaceOnUse">
<stop stop-color="#7ACF00"/>
<stop offset="1" stop-color="#C6E48F"/>
</linearGradient>
<linearGradient id="paint1_linear_125_2" x1="379.633" y1="-15.9606" x2="1112.68" y2="406.614" gradientUnits="userSpaceOnUse">
<stop stop-color="#23C400"/>
<stop offset="1" stop-color="#DCEC8F"/>
</linearGradient>
<linearGradient id="paint2_linear_125_2" x1="1678.9" y1="746.347" x2="1325.87" y2="95.0036" gradientUnits="userSpaceOnUse">
<stop stop-color="#7CD000"/>
<stop offset="1" stop-color="#C8E591"/>
</linearGradient>
</defs>
</svg>
