<svg width="86" height="58" viewBox="0 0 86 58" fill="none" xmlns="http://www.w3.org/2000/svg">
<path d="M35.7559 3.25057L30.8654 0C29.1566 1.08352 24.924 3.69838 21.6636 5.48963C17.5881 7.72869 18.3836 11.1855 18.2952 16.4787C18.2245 20.7133 19.3264 22.551 19.8861 22.9405C23.8045 25.3073 32.3856 30.4984 35.3631 32.3289C38.3407 34.1594 40.6629 33.6874 41.4518 33.2225C42.4666 32.5744 45.1816 30.903 47.9235 29.4024C50.6653 27.9018 51.7305 26.5316 51.9204 26.034C51.9466 22.6296 51.9832 15.3474 51.9204 13.454C51.8575 11.5606 49.0397 10.0267 47.6387 9.49636L43.0525 12.3738C43.4715 12.5407 44.5826 13.0278 45.6746 13.6406C46.7666 14.2534 47.236 15.2577 47.3342 15.6832V22.2826C47.3342 24.2958 46.3522 24.5315 42.6695 26.9473C39.7234 28.8799 38.1816 28.6429 37.779 28.2829C33.8279 25.9391 25.6448 21.0825 24.5214 20.4069C23.3979 19.7312 23.0516 18.9993 23.0188 18.7178V12.963C23.0188 10.8103 24.361 9.59784 25.032 9.26067L35.7559 3.25057Z" fill="#E1918E"/>
<path d="M31.1308 15.8749V19.2531L26.417 17.2006V14.0384C26.417 12.365 27.3008 11.5211 27.7428 11.3083C32.9574 8.30002 43.8247 2.01036 45.5767 0.918324C47.3286 -0.173709 48.7094 0.247261 49.1808 0.594249C51.865 2.11642 57.593 5.3827 59.0307 6.27046C60.4684 7.15823 60.7754 8.19854 60.7492 8.60773L60.5725 21.8457L55.7899 24.507C55.803 21.5576 55.8214 15.1697 55.7899 13.2135C55.7585 11.2573 55.4429 10.3623 55.2891 10.1594C54.1728 9.40318 51.5239 7.60408 49.8584 6.45705C48.1928 5.31002 46.4801 5.97912 45.832 6.45705C42.8826 8.20509 36.4083 12.0036 34.1064 13.2135C31.8045 14.4234 31.1635 15.4919 31.1308 15.8749Z" fill="#CD9F97"/>
<path d="M13.5241 40.815C13.4055 39.8132 12.9244 39.0355 12.0808 38.4819C11.2372 37.9283 10.2024 37.6515 8.97654 37.6515C8.0802 37.6515 7.29591 37.7965 6.62366 38.0865C5.958 38.3765 5.43733 38.7752 5.06166 39.2827C4.69258 39.7902 4.50804 40.3668 4.50804 41.0127C4.50804 41.5532 4.63656 42.0178 4.8936 42.4067C5.15723 42.7889 5.49335 43.1086 5.90198 43.3656C6.3106 43.6161 6.739 43.8237 7.18716 43.9884C7.63533 44.1466 8.04725 44.2751 8.42292 44.374L10.4792 44.9276C11.0065 45.066 11.593 45.2572 12.2389 45.501C12.8914 45.7449 13.5142 46.0777 14.1074 46.4995C14.7072 46.9147 15.2015 47.4486 15.5903 48.101C15.9792 48.7535 16.1736 49.5543 16.1736 50.5034C16.1736 51.5974 15.8869 52.586 15.3135 53.4692C14.7467 54.3523 13.9163 55.0542 12.8222 55.5749C11.7347 56.0956 10.4133 56.3559 8.85791 56.3559C7.40795 56.3559 6.15242 56.1219 5.09132 55.654C4.03681 55.186 3.20638 54.5336 2.60003 53.6965C2.00028 52.8595 1.66086 51.8874 1.58177 50.7802H4.1126C4.17851 51.5447 4.43554 52.1774 4.88371 52.6783C5.33847 53.1726 5.91186 53.5417 6.60389 53.7855C7.3025 54.0228 8.05384 54.1414 8.85791 54.1414C9.79379 54.1414 10.6341 53.9898 11.3789 53.6867C12.1236 53.3769 12.7135 52.9485 13.1485 52.4015C13.5834 51.8479 13.8009 51.202 13.8009 50.4638C13.8009 49.7916 13.6131 49.2445 13.2374 48.8227C12.8618 48.4009 12.3675 48.0582 11.7545 47.7946C11.1416 47.5309 10.4792 47.3003 9.76742 47.1025L7.27614 46.3908C5.69437 45.936 4.44213 45.2868 3.51944 44.4432C2.59674 43.5996 2.13539 42.4956 2.13539 41.1314C2.13539 39.9978 2.44186 39.0092 3.05479 38.1656C3.67432 37.3154 4.50475 36.6563 5.54608 36.1883C6.594 35.7138 7.76385 35.4765 9.05563 35.4765C10.3606 35.4765 11.5206 35.7105 12.5355 36.1785C13.5505 36.6398 14.3546 37.2725 14.9477 38.0766C15.5475 38.8806 15.8638 39.7935 15.8968 40.815H13.5241ZM23.2432 56.3559C22.281 56.3559 21.4077 56.1747 20.6234 55.8122C19.8391 55.4431 19.2163 54.9125 18.7549 54.2205C18.2936 53.5219 18.0629 52.6783 18.0629 51.6897C18.0629 50.8197 18.2343 50.1145 18.577 49.5741C18.9197 49.027 19.3778 48.5986 19.9511 48.2889C20.5245 47.9791 21.1572 47.7484 21.8493 47.5969C22.5479 47.4387 23.2498 47.3135 23.955 47.2212C24.8777 47.1025 25.6257 47.0136 26.1991 46.9543C26.7791 46.8884 27.2009 46.7796 27.4646 46.628C27.7348 46.4764 27.8699 46.2128 27.8699 45.8371V45.758C27.8699 44.7826 27.603 44.0247 27.0691 43.4843C26.5419 42.9438 25.7411 42.6736 24.6668 42.6736C23.553 42.6736 22.6797 42.9175 22.047 43.4052C21.4143 43.8929 20.9694 44.4135 20.7124 44.9672L18.4979 44.1763C18.8933 43.2536 19.4206 42.5352 20.0797 42.0211C20.7453 41.5005 21.4703 41.138 22.2546 40.9337C23.0455 40.7227 23.8232 40.6173 24.5877 40.6173C25.0754 40.6173 25.6356 40.6766 26.2683 40.7952C26.9076 40.9073 27.5239 41.1413 28.117 41.4972C28.7168 41.8531 29.2144 42.3902 29.6098 43.1086C30.0053 43.827 30.203 44.7892 30.203 45.9953V56H27.8699V53.9437H27.7512C27.5931 54.2732 27.3294 54.6258 26.9604 55.0015C26.5913 55.3772 26.1003 55.6968 25.4873 55.9605C24.8744 56.2241 24.1264 56.3559 23.2432 56.3559ZM23.5991 54.2601C24.5218 54.2601 25.2995 54.0788 25.9322 53.7163C26.5715 53.3538 27.0526 52.8859 27.3756 52.3125C27.7051 51.7391 27.8699 51.1361 27.8699 50.5034V48.368C27.771 48.4866 27.5535 48.5953 27.2174 48.6942C26.8879 48.7865 26.5056 48.8689 26.0706 48.9414C25.6422 49.0073 25.2237 49.0666 24.8151 49.1193C24.4131 49.1654 24.0868 49.205 23.8364 49.2379C23.23 49.317 22.6632 49.4455 22.136 49.6235C21.6153 49.7949 21.1935 50.0552 20.8706 50.4045C20.5542 50.7472 20.396 51.2151 20.396 51.8083C20.396 52.619 20.6959 53.2319 21.2957 53.6471C21.902 54.0557 22.6698 54.2601 23.5991 54.2601ZM35.681 46.8653V56H33.3478V40.815H35.6019V43.1877H35.7996C36.1555 42.4166 36.6959 41.797 37.4209 41.3291C38.1459 40.8546 39.0818 40.6173 40.2285 40.6173C41.2567 40.6173 42.1563 40.8282 42.9274 41.25C43.6985 41.6652 44.2983 42.2979 44.7267 43.1481C45.1551 43.9917 45.3693 45.0594 45.3693 46.3512V56H43.0362V46.5094C43.0362 45.3165 42.7264 44.3872 42.1069 43.7215C41.4874 43.0493 40.6372 42.7131 39.5563 42.7131C38.8115 42.7131 38.1459 42.8746 37.5593 43.1976C36.9793 43.5205 36.5213 43.9917 36.1851 44.6113C35.849 45.2308 35.681 45.9821 35.681 46.8653ZM55.123 40.815V42.7922H47.2537V40.815H55.123ZM49.5472 37.1769H51.8803V51.6501C51.8803 52.3092 51.9759 52.8035 52.167 53.133C52.3648 53.456 52.6152 53.6735 52.9184 53.7855C53.2281 53.891 53.5544 53.9437 53.8971 53.9437C54.1541 53.9437 54.365 53.9305 54.5298 53.9042C54.6946 53.8712 54.8264 53.8448 54.9252 53.8251L55.3998 55.9209C55.2416 55.9802 55.0208 56.0395 54.7374 56.0989C54.454 56.1648 54.0948 56.1977 53.6598 56.1977C53.0008 56.1977 52.3549 56.056 51.7222 55.7726C51.096 55.4892 50.5754 55.0575 50.1602 54.4775C49.7515 53.8976 49.5472 53.166 49.5472 52.2828V37.1769ZM64.1228 40.815V42.7922H56.2535V40.815H64.1228ZM58.5471 37.1769H60.8802V51.6501C60.8802 52.3092 60.9758 52.8035 61.1669 53.133C61.3646 53.456 61.6151 53.6735 61.9182 53.7855C62.228 53.891 62.5543 53.9437 62.897 53.9437C63.154 53.9437 63.3649 53.9305 63.5297 53.9042C63.6944 53.8712 63.8263 53.8448 63.9251 53.8251L64.3996 55.9209C64.2415 55.9802 64.0207 56.0395 63.7373 56.0989C63.4539 56.1648 63.0947 56.1977 62.6597 56.1977C62.0006 56.1977 61.3547 56.056 60.722 55.7726C60.0959 55.4892 59.5753 55.0575 59.16 54.4775C58.7514 53.8976 58.5471 53.166 58.5471 52.2828V37.1769ZM72.7223 56.3164C71.2592 56.3164 69.9971 55.9934 68.936 55.3475C67.8815 54.695 67.0675 53.7855 66.4941 52.619C65.9273 51.4458 65.6439 50.0815 65.6439 48.5261C65.6439 46.9707 65.9273 45.5999 66.4941 44.4135C67.0675 43.2206 67.865 42.2913 68.8865 41.6257C69.9147 40.9534 71.1142 40.6173 72.4851 40.6173C73.2759 40.6173 74.0569 40.7491 74.8281 41.0127C75.5992 41.2764 76.3011 41.7048 76.9338 42.2979C77.5665 42.8845 78.0707 43.6622 78.4463 44.631C78.822 45.5999 79.0099 46.7928 79.0099 48.2098V49.1984H67.3048V47.1816H76.6372C76.6372 46.3248 76.4658 45.5603 76.1231 44.8881C75.787 44.2158 75.3059 43.6853 74.6798 43.2964C74.0602 42.9076 73.3287 42.7131 72.4851 42.7131C71.5558 42.7131 70.7517 42.9438 70.0729 43.4052C69.4006 43.8599 68.8832 44.4531 68.5207 45.1847C68.1583 45.9162 67.977 46.7005 67.977 47.5375V48.882C67.977 50.0288 68.1747 51.001 68.5702 51.7984C68.9722 52.5893 69.5291 53.1924 70.2409 53.6076C70.9527 54.0162 71.7799 54.2205 72.7223 54.2205C73.3353 54.2205 73.8889 54.1348 74.3832 53.9635C74.8841 53.7855 75.3158 53.5219 75.6783 53.1726C76.0407 52.8167 76.3208 52.3751 76.5186 51.8479L78.7726 52.4806C78.5353 53.2451 78.1366 53.9173 77.5764 54.4973C77.0162 55.0707 76.3241 55.5189 75.5003 55.8418C74.6765 56.1582 73.7505 56.3164 72.7223 56.3164ZM71.2987 38.7587L73.7109 34.1716H76.4395L73.355 38.7587H71.2987Z" fill="#324158"/>
</svg>
